#!OML:ASF E:\Style4\Style4.ASF
:FULLY-SPECIFIED
:DEGREES
3153
root 0.0777737 17.3327 -1.01749 -5.05151 -5.23614 2.41689
lowerback 8.92712 -0.40867 -5.16372
upperback 6.24076 -0.912921 1.61056
thorax 1.60798 -0.657795 4.64496
lowerneck 0.790657 -0.337656 -3.65819
upperneck 14.4562 -0.199664 -1.22414
head 4.65064 -0.357532 0.221296
rclavicle 2.127e-014 5.1684e-015
rhumerus 22.1405 -16.6967 -60.0059
rradius 96.8883
rwrist 1.56249
rhand 30.7356 5.81745
rfingers 7.12502
rthumb 54.3671 -12.7693
lclavicle 2.127e-014 5.1684e-015
lhumerus 1.68865 6.19275 55.0612
lradius 109.244
lwrist -0.921009
lhand 28.1777 33.8308
lfingers 7.12502
lthumb 52.0614 53.8999
rfemur -14.452 -2.69609 15.6152
rtibia 41.8332
rfoot -20.9014 -12.905
rtoes -17.2932
lfemur -12.0216 7.72277 -20.073
ltibia 39.6118
lfoot -23.4801 7.21496
ltoes -10.924
3154
root 0.0753955 17.338 -1.00976 -5.0098 -5.22867 2.25458
lowerback 8.75401 -0.46887 -5.24908
upperback 6.32741 -0.988287 1.51829
thorax 1.80342 -0.704358 4.59798
lowerneck 0.782959 -0.232921 -3.70764
upperneck 14.446 -0.118479 -0.725851
head 4.64809 -0.29746 0.402129
rclavicle -1.59028e-014 -1.98785e-015
rhumerus 22.3996 -17.1515 -59.67
rradius 97.0281
rwrist 1.40301
rhand 31.0189 5.6789
rfingers 7.12502
rthumb 54.6206 -12.7307
lclavicle -1.59028e-014 -1.98785e-015
lhumerus 1.73548 6.03318 54.9572
lradius 109.105
lwrist -0.936332
lhand 28.1047 33.8056
lfingers 7.12502
lthumb 51.9952 53.9141
rfemur -14.3006 -2.74866 15.7995
rtibia 41.5628
rfoot -20.8331 -12.7886
rtoes -16.5557
lfemur -11.9907 7.6189 -19.8768
ltibia 39.5622
lfoot -23.4776 7.03122
ltoes -10.4167
3155
root 0.073017 17.3467 -1.0069 -4.96142 -5.21145 1.95026
lowerback 8.5023 -0.538473 -5.11547
upperback 6.50666 -1.05621 1.39957
thorax 2.13122 -0.745205 4.39604
lowerneck 0.784046 -0.163721 -3.70923
upperneck 14.3241 -0.0911606 -0.203212
head 4.6031 -0.258399 0.580689
rclavicle -2.8625e-014 5.96354e-015
rhumerus 22.7551 -17.703 -59.4072
rradius 97.1397
rwrist 1.34592
rhand 31.1256 5.57957
rfingers 7.12502
rthumb 54.716 -12.7626
lclavicle -2.8625e-014 5.96354e-015
lhumerus 1.99598 5.92621 54.8581
lradius 108.892
lwrist -1.04276
lhand 28.2348 33.727
lfingers 7.12502
lthumb 52.1132 53.7652
rfemur -14.1116 -2.76833 16.1528
rtibia 41.2334
rfoot -20.7967 -12.6835
rtoes -15.5768
lfemur -11.9506 7.50463 -19.5193
ltibia 39.4569
lfoot -23.3988 7.02588
ltoes -10.8937
3156
root 0.0708882 17.3612 -1.00112 -4.90213 -5.15609 1.69068
lowerback 8.31113 -0.570305 -5.0633
upperback 6.61493 -1.08321 1.30781
thorax 2.34948 -0.763441 4.26753
lowerneck 0.765979 -0.136112 -3.77548
upperneck 14.313 -0.117198 0.340055
head 4.60525 -0.249803 0.776006
rclavicle -7.50412e-015 1.70955e-014
rhumerus 22.9568 -18.2719 -58.9657
rradius 97.2773
rwrist 1.30427
rhand 31.1499 5.47974
rfingers 7.12502
rthumb 54.7377 -12.847
lclavicle -7.50412e-015 1.70955e-014
lhumerus 2.19684 5.73856 54.9
lradius 108.714
lwrist -1.10952
lhand 28.2241 33.6657
lfingers 7.12502
lthumb 52.1035 53.7097
rfemur -13.8797 -2.81839 16.449
rtibia 40.8566
rfoot -20.6175 -12.9376
rtoes -16.9625
lfemur -11.8669 7.30062 -19.2325
ltibia 39.2846
lfoot -23.3669 7.08158
ltoes -11.3013
3157
root 0.066124 17.376 -0.99155 -4.85522 -5.05773 1.47342
lowerback 8.2826 -0.588223 -5.1489
upperback 6.611 -1.10983 1.25759
thorax 2.36551 -0.779028 4.26439
lowerneck 0.686773 -0.074647 -3.94698
upperneck 14.4981 -0.0996077 0.954958
head 4.69311 -0.224534 1.01812
rclavicle -4.37326e-015 7.35503e-015
rhumerus 23.0086 -18.7487 -58.3311
rradius 97.4638
rwrist 1.12937
rhand 31.2383 5.17616
rfingers 7.12502
rthumb 54.8167 -13.0943
lclavicle -4.37326e-015 7.35503e-015
lhumerus 2.20661 5.41821 54.971
lradius 108.551
lwrist -1.18748
lhand 28.1299 33.6559
lfingers 7.12502
lthumb 52.0181 53.7508
rfemur -13.6035 -2.95184 16.6904
rtibia 40.4388
rfoot -20.393 -13.1886
rtoes -18.4883
lfemur -11.7333 7.10721 -18.9879
ltibia 39.0634
lfoot -23.2684 6.95174
ltoes -10.727
3158
root 0.0587143 17.3923 -0.987453 -4.71257 -4.90836 1.40219
lowerback 8.32409 -0.654046 -5.48363
upperback 6.49348 -1.22008 1.18585
thorax 2.24096 -0.838146 4.38683
lowerneck 0.533006 0.0233125 -4.03248
upperneck 14.8374 -0.016057 1.41454
head 4.85068 -0.170983 1.19775
rclavicle 4.11484e-014 -7.7526e-015
rhumerus 23.0801 -19.0264 -57.7415
rradius 97.5987
rwrist 0.898293
rhand 31.3527 5.01882
rfingers 7.12502
rthumb 54.9188 -13.1785
lclavicle 4.11484e-014 -7.7526e-015
lhumerus 2.097 5.19164 55.0174
lradius 108.391
lwrist -1.3267
lhand 28.1491 33.6574
lfingers 7.12502
lthumb 52.0354 53.742
rfemur -13.478 -3.07682 16.7885
rtibia 40.0018
rfoot -20.2274 -13.2374
rtoes -18.6869
lfemur -11.7192 6.97138 -18.9067
ltibia 38.7652
lfoot -23.0163 6.86351
ltoes -10.5793
3159
root 0.0501712 17.4105 -0.988238 -4.4916 -4.75299 1.28146
lowerback 8.37686 -0.699503 -5.71545
upperback 6.34726 -1.29868 1.07165
thorax 2.07215 -0.874073 4.40568
lowerneck 0.284135 0.0694742 -3.97663
upperneck 15.5813 -0.018561 1.91054
head 4.62048 -0.139561 1.24761
rclavicle -4.05024e-014 1.37161e-014
rhumerus 23.063 -19.3831 -57.1499
rradius 97.7404
rwrist 0.698026
rhand 31.4008 4.8777
rfingers 7.12502
rthumb 54.9617 -13.2886
lclavicle -4.05024e-014 1.37161e-014
lhumerus 2.18351 4.92246 55.1658
lradius 108.253
lwrist -1.44082
lhand 28.2494 33.8424
lfingers 7.12502
lthumb 52.1264 53.8727
rfemur -13.4339 -3.10884 16.9693
rtibia 39.5303
rfoot -20.0213 -13.3726
rtoes -18.7907
lfemur -11.7941 6.87864 -18.7681
ltibia 38.4284
lfoot -22.8472 6.6452
ltoes -10.2215
3160
root 0.043018 17.4316 -0.985262 -4.31987 -4.56091 1.11275
lowerback 8.35755 -0.730801 -5.8161
upperback 6.31743 -1.3443 0.951749
thorax 2.05689 -0.896247 4.33966
lowerneck 0.219715 0.103152 -4.11251
upperneck 15.5199 -0.0562572 2.59922
head 4.61073 -0.127825 1.48151
rclavicle -5.55355e-014 -2.23633e-015
rhumerus 23.1916 -19.8647 -56.583
rradius 97.8365
rwrist 0.501373
rhand 31.4414 4.69319
rfingers 7.12502
rthumb 54.9979 -13.447
lclavicle -5.55355e-014 -2.23633e-015
lhumerus 2.42744 4.62818 55.3485
lradius 108.086
lwrist -1.54151
lhand 28.2704 33.8778
lfingers 7.12502
lthumb 52.1455 53.8967
rfemur -13.2651 -3.13517 17.1843
rtibia 39.0244
rfoot -19.8722 -13.513
rtoes -18.6632
lfemur -11.7731 6.74173 -18.5818
ltibia 38.044
lfoot -22.6401 6.41494
ltoes -9.50896
